<svg xmlns="http://www.w3.org/2000/svg" xmlns:xlink="http://www.w3.org/1999/xlink" width="500" zoomAndPan="magnify" viewBox="0 0 375 374.999991" height="500" preserveAspectRatio="xMidYMid meet" version="1.0"><defs><g/><clipPath id="e77c11adf0"><path d="M 165.816406 0 L 213.816406 0 L 213.816406 375 L 165.816406 375 Z M 165.816406 0 " clip-rule="nonzero"/></clipPath></defs><rect x="-37.5" width="450" fill="#ffffff" y="-37.499999" height="449.999989" fill-opacity="1"/><rect x="-37.5" width="450" fill="#ffffff" y="-37.499999" height="449.999989" fill-opacity="1"/><rect x="-37.5" width="450" fill="#2b2b2b" y="-37.499999" height="449.999989" fill-opacity="1"/><g fill="#f4f4f4" fill-opacity="1"><g transform="translate(203.923483, 282.500007)"><g><path d="M 8.667969 0 L 36.207031 0 L 36.207031 -2.210938 C 30.9375 -3.738281 29.410156 -7.648438 29.410156 -21.589844 L 29.410156 -47.089844 L 41.480469 -47.089844 C 73.097656 -47.089844 89.585938 -62.898438 89.585938 -85.507812 C 89.585938 -101.996094 78.367188 -118.996094 43.179688 -118.996094 L 8.667969 -118.996094 L 8.667969 -116.785156 C 13.769531 -115.257812 15.46875 -111.347656 15.46875 -97.40625 L 15.46875 -21.589844 C 15.46875 -7.648438 13.769531 -3.738281 8.667969 -2.210938 Z M 29.410156 -49.636719 L 29.410156 -116.105469 C 31.449219 -116.277344 34.167969 -116.445312 36.550781 -116.445312 C 63.917969 -116.445312 74.628906 -99.785156 74.628906 -81.597656 C 74.628906 -61.539062 62.898438 -49.636719 41.140625 -49.636719 Z M 29.410156 -49.636719 "/></g></g></g><g fill="#f4f4f4" fill-opacity="1"><g transform="translate(121.061908, 201.692788)"><g><path d="M -10.878906 20.394531 C 11.046875 20.394531 31.441406 -0.679688 31.441406 -33.3125 L 31.441406 -97.386719 C 31.441406 -111.320312 32.972656 -115.230469 38.242188 -116.761719 L 38.242188 -118.96875 L 10.878906 -118.96875 L 10.878906 -116.761719 C 16.144531 -115.230469 17.675781 -111.320312 17.675781 -97.386719 L 17.675781 -12.578125 C 17.675781 4.589844 12.746094 8.835938 8.667969 11.386719 C 0.511719 9.6875 -3.570312 8.835938 -8.328125 8.835938 C -14.277344 8.835938 -17.675781 13.085938 -17.675781 16.65625 C -17.675781 19.886719 -15.296875 20.394531 -10.878906 20.394531 Z M -10.878906 20.394531 "/></g></g></g><g clip-path="url(#e77c11adf0)"><path fill="#2b2b2b" d="M 165.816406 -7.589844 L 213.816406 -7.589844 L 213.816406 383.160156 L 165.816406 383.160156 Z M 165.816406 -7.589844 " fill-opacity="1" fill-rule="nonzero"/></g><g fill="#f4f4f4" fill-opacity="1"><g transform="translate(185.018416, 86.734204)"><g><path d="M -2.429688 -1.296875 C -2.429688 1.316406 0.0820312 3.746094 3.96875 3.746094 L 11.601562 3.746094 C 13.265625 3.746094 13.730469 3.929688 13.910156 4.554688 L 14.175781 4.554688 L 14.175781 1.296875 L 13.910156 1.296875 C 13.730469 1.921875 13.265625 2.105469 11.601562 2.105469 L 1.5 2.105469 C -0.546875 2.105469 -1.054688 1.519531 -1.355469 1.03125 C -1.152344 0.0625 -1.054688 -0.425781 -1.054688 -0.992188 C -1.054688 -1.699219 -1.558594 -2.105469 -1.984375 -2.105469 C -2.371094 -2.105469 -2.429688 -1.824219 -2.429688 -1.296875 Z M -2.429688 -1.296875 "/></g></g></g><g fill="#f4f4f4" fill-opacity="1"><g transform="translate(185.018416, 95.503522)"><g><path d="M 0 1.03125 L 0 11.015625 L 2.691406 11.179688 L 2.734375 10.957031 C 0.851562 10.226562 0.304688 8.992188 0.304688 7.046875 L 0.304688 4.414062 C 0.304688 3.828125 0.628906 3.503906 1.214844 3.503906 L 7.433594 3.503906 L 7.433594 6.09375 C 7.433594 8.402344 6.964844 8.992188 6.054688 9.234375 L 6.054688 9.476562 L 9.113281 9.476562 L 9.113281 9.234375 C 8.203125 8.992188 7.734375 8.402344 7.734375 6.09375 L 7.734375 3.503906 L 13.871094 3.503906 L 13.871094 6.480469 C 13.871094 8.546875 13.265625 9.742188 11.480469 10.449219 L 11.542969 10.671875 L 14.175781 10.449219 L 14.175781 1.03125 L 13.910156 1.03125 C 13.730469 1.640625 13.265625 1.84375 11.601562 1.84375 L 2.570312 1.84375 C 0.910156 1.84375 0.445312 1.640625 0.261719 1.03125 Z M 0 1.03125 "/></g></g></g><g fill="#f4f4f4" fill-opacity="1"><g transform="translate(185.018416, 110.611081)"><g><path d="M -0.203125 5.769531 C -0.203125 8.160156 1.335938 10.507812 3.867188 10.507812 C 6.15625 10.507812 7.046875 8.402344 7.9375 6.15625 C 8.648438 4.433594 9.417969 2.347656 11.320312 2.347656 C 13.039062 2.347656 13.992188 3.746094 13.992188 5.386719 C 13.992188 7.695312 12.738281 9.113281 10.976562 9.863281 L 11.035156 10.0625 L 13.386719 9.984375 C 13.808594 9.195312 14.316406 7.878906 14.316406 6.035156 C 14.316406 3.058594 12.816406 1.09375 10.449219 1.09375 C 8.300781 1.09375 7.453125 2.613281 6.5 5 C 5.8125 6.703125 4.878906 9.195312 2.855469 9.195312 C 1.214844 9.195312 0.160156 7.796875 0.160156 6.175781 C 0.160156 3.363281 1.964844 1.824219 4.089844 1.03125 L 4.050781 0.808594 L 1.234375 0.910156 C 0.546875 1.863281 -0.203125 3.644531 -0.203125 5.769531 Z M -0.203125 5.769531 "/></g></g></g><g fill="#f4f4f4" fill-opacity="1"><g transform="translate(185.018416, 124.94914)"><g><path d="M -0.203125 7.308594 C -0.203125 10.125 1.335938 12.351562 5.40625 12.351562 L 11.601562 12.351562 C 13.265625 12.351562 13.730469 12.554688 13.910156 13.164062 L 14.175781 13.164062 L 14.175781 10.652344 L 13.910156 10.652344 C 13.667969 11.542969 13.101562 12.027344 10.792969 12.027344 L 5.347656 12.027344 C 1.378906 12.027344 0.222656 9.699219 0.222656 7.957031 C 0.222656 5.324219 1.578125 3.238281 5.347656 3.238281 L 11.601562 3.238281 C 13.265625 3.238281 13.730469 3.441406 13.910156 4.050781 L 14.175781 4.050781 L 14.175781 0.769531 L 13.910156 0.769531 C 13.730469 1.398438 13.265625 1.578125 11.601562 1.578125 L 5.222656 1.578125 C 1.152344 1.578125 -0.203125 4.414062 -0.203125 7.308594 Z M -0.203125 7.308594 "/></g></g></g><g fill="#f4f4f4" fill-opacity="1"><g transform="translate(185.018416, 141.879194)"><g><path d="M -0.203125 5.769531 C -0.203125 8.160156 1.335938 10.507812 3.867188 10.507812 C 6.15625 10.507812 7.046875 8.402344 7.9375 6.15625 C 8.648438 4.433594 9.417969 2.347656 11.320312 2.347656 C 13.039062 2.347656 13.992188 3.746094 13.992188 5.386719 C 13.992188 7.695312 12.738281 9.113281 10.976562 9.863281 L 11.035156 10.0625 L 13.386719 9.984375 C 13.808594 9.195312 14.316406 7.878906 14.316406 6.035156 C 14.316406 3.058594 12.816406 1.09375 10.449219 1.09375 C 8.300781 1.09375 7.453125 2.613281 6.5 5 C 5.8125 6.703125 4.878906 9.195312 2.855469 9.195312 C 1.214844 9.195312 0.160156 7.796875 0.160156 6.175781 C 0.160156 3.363281 1.964844 1.824219 4.089844 1.03125 L 4.050781 0.808594 L 1.234375 0.910156 C 0.546875 1.863281 -0.203125 3.644531 -0.203125 5.769531 Z M -0.203125 5.769531 "/></g></g></g><g fill="#f4f4f4" fill-opacity="1"><g transform="translate(185.018416, 156.217255)"><g/></g></g><g fill="#f4f4f4" fill-opacity="1"><g transform="translate(185.018416, 163.650077)"><g><path d="M 0 1.03125 L 0 4.3125 L 0.261719 4.3125 C 0.445312 3.683594 0.910156 3.503906 2.570312 3.503906 L 5.609375 3.503906 L 5.609375 4.941406 C 5.609375 8.707031 7.492188 10.671875 10.1875 10.671875 C 12.148438 10.671875 14.175781 9.335938 14.175781 5.144531 L 14.175781 1.03125 L 13.910156 1.03125 C 13.730469 1.640625 13.265625 1.84375 11.601562 1.84375 L 2.570312 1.84375 C 0.910156 1.84375 0.445312 1.640625 0.261719 1.03125 Z M 5.914062 3.503906 L 13.832031 3.503906 C 13.851562 3.746094 13.871094 4.070312 13.871094 4.355469 C 13.871094 7.613281 11.886719 8.890625 9.71875 8.890625 C 7.332031 8.890625 5.914062 7.492188 5.914062 4.902344 Z M 5.914062 3.503906 "/></g></g></g><g fill="#f4f4f4" fill-opacity="1"><g transform="translate(185.018416, 178.008394)"><g><path d="M 0 1.03125 L 0 4.3125 L 0.261719 4.3125 C 0.445312 3.683594 0.910156 3.503906 2.570312 3.503906 L 11.601562 3.503906 C 13.265625 3.503906 13.730469 3.683594 13.910156 4.3125 L 14.175781 4.3125 L 14.175781 1.03125 L 13.910156 1.03125 C 13.730469 1.640625 13.265625 1.84375 11.601562 1.84375 L 2.570312 1.84375 C 0.910156 1.84375 0.445312 1.640625 0.261719 1.03125 Z M 0 1.03125 "/></g></g></g><g fill="#f4f4f4" fill-opacity="1"><g transform="translate(185.018416, 186.534723)"><g><path d="M -0.203125 8.6875 C -0.203125 10.957031 0.363281 12.878906 0.890625 13.832031 L 3.523438 14.15625 L 3.542969 13.933594 C 1.355469 13.140625 0.203125 11.441406 0.203125 9.253906 C 0.203125 5.042969 3.847656 2.734375 7.65625 2.753906 C 11.785156 2.753906 13.933594 5.246094 13.933594 8.464844 C 13.933594 10.875 12.695312 12.796875 10.855469 13.585938 L 10.894531 13.789062 L 13.304688 13.710938 C 13.808594 12.917969 14.316406 10.894531 14.316406 9.152344 C 14.316406 4.394531 11.117188 1.054688 6.804688 1.054688 C 2.390625 1.054688 -0.203125 4.03125 -0.203125 8.6875 Z M -0.203125 8.6875 "/></g></g></g><g fill="#f4f4f4" fill-opacity="1"><g transform="translate(185.018416, 204.720276)"><g><path d="M 0 1.03125 L 0 4.3125 L 0.261719 4.3125 C 0.445312 3.683594 0.910156 3.503906 2.570312 3.503906 L 7.351562 3.503906 L 7.351562 11.21875 L 2.570312 11.21875 C 0.910156 11.21875 0.445312 11.015625 0.261719 10.410156 L 0 10.410156 L 0 13.6875 L 0.261719 13.6875 C 0.445312 13.0625 0.910156 12.878906 2.570312 12.878906 L 11.601562 12.878906 C 13.265625 12.878906 13.730469 13.0625 13.910156 13.6875 L 14.175781 13.6875 L 14.175781 10.410156 L 13.910156 10.410156 C 13.730469 11.015625 13.265625 11.21875 11.601562 11.21875 L 7.675781 11.21875 L 7.675781 3.503906 L 11.601562 3.503906 C 13.265625 3.503906 13.730469 3.683594 13.910156 4.3125 L 14.175781 4.3125 L 14.175781 1.03125 L 13.910156 1.03125 C 13.730469 1.640625 13.265625 1.84375 11.601562 1.84375 L 2.570312 1.84375 C 0.910156 1.84375 0.445312 1.640625 0.261719 1.03125 Z M 0 1.03125 "/></g></g></g><g fill="#f4f4f4" fill-opacity="1"><g transform="translate(185.018416, 222.60208)"><g><path d="M 0 -0.34375 L 0 1.945312 L 0.261719 1.945312 C 0.40625 1.253906 1.074219 1.175781 2.390625 1.699219 L 5.347656 2.894531 L 5.347656 8.605469 L 2.371094 9.839844 C 0.851562 10.488281 0.445312 10.652344 0.261719 10.023438 L 0 10.023438 L 0 13.164062 L 0.261719 13.164062 C 0.445312 12.738281 0.851562 12.25 2.371094 11.625 L 14.335938 6.640625 L 13.648438 5.125 L 13.222656 5.304688 C 12.898438 5.46875 12.636719 5.488281 12.273438 5.347656 L 2.390625 1.355469 C 0.851562 0.730469 0.445312 0.222656 0.261719 -0.34375 Z M 5.648438 3.015625 L 12.3125 5.710938 L 5.648438 8.484375 Z M 5.648438 3.015625 "/></g></g></g><g fill="#f4f4f4" fill-opacity="1"><g transform="translate(185.018416, 238.762636)"><g><path d="M -0.140625 11.339844 C -0.140625 11.746094 -0.101562 12.273438 0 12.574219 L 0.242188 12.574219 C 0.222656 12.472656 0.222656 12.371094 0.222656 12.25 C 0.222656 11.5625 0.890625 11.15625 3.320312 10.1875 C 5.8125 9.214844 7.046875 8.828125 7.371094 6.339844 C 7.675781 8.972656 9.113281 10.347656 11.015625 10.347656 C 12.816406 10.347656 14.175781 9.132812 14.175781 5.023438 L 14.175781 1.03125 L 13.910156 1.03125 C 13.730469 1.660156 13.265625 1.84375 11.601562 1.84375 L 2.570312 1.84375 C 0.910156 1.84375 0.445312 1.660156 0.261719 1.03125 L 0 1.03125 L 0 4.3125 L 0.261719 4.3125 C 0.445312 3.683594 0.910156 3.503906 2.570312 3.503906 L 7.308594 3.503906 L 7.308594 4.800781 C 7.308594 7.230469 5.894531 7.390625 3.097656 8.566406 C 0.992188 9.457031 -0.140625 9.78125 -0.140625 11.339844 Z M 7.613281 3.503906 L 13.832031 3.503906 C 13.851562 3.828125 13.871094 4.152344 13.871094 4.453125 C 13.871094 7.453125 12.351562 8.625 10.550781 8.625 C 8.828125 8.625 7.613281 7.53125 7.613281 5.203125 Z M 7.613281 3.503906 "/></g></g></g><g fill="#f4f4f4" fill-opacity="1"><g transform="translate(185.018416, 254.33595)"><g><path d="M 0 1.03125 L 0 6.339844 C 0 10.792969 3.078125 13.667969 7.351562 13.648438 C 10.632812 13.628906 14.175781 11.441406 14.175781 5.871094 L 14.175781 1.03125 L 13.910156 1.03125 C 13.730469 1.640625 13.265625 1.84375 11.601562 1.84375 L 2.570312 1.84375 C 0.910156 1.84375 0.445312 1.640625 0.261719 1.03125 Z M 1.78125 3.503906 L 13.871094 3.503906 L 13.871094 4.878906 C 13.871094 9.394531 10.589844 11.804688 6.539062 11.804688 C 2.308594 11.804688 0.304688 9.839844 0.304688 6.296875 L 0.304688 4.820312 C 0.304688 3.707031 0.832031 3.503906 1.78125 3.503906 Z M 1.78125 3.503906 "/></g></g></g><g fill="#f4f4f4" fill-opacity="1"><g transform="translate(185.018416, 272.197509)"><g><path d="M -0.203125 8.261719 C -0.203125 11.664062 2.023438 15.429688 7.027344 15.429688 C 11.988281 15.429688 14.335938 11.683594 14.335938 8.261719 C 14.335938 3.96875 11.257812 1.054688 7.109375 1.054688 C 2.085938 1.054688 -0.203125 4.820312 -0.203125 8.261719 Z M 8.28125 2.671875 C 11.582031 2.550781 13.871094 4.355469 13.871094 7.433594 C 13.871094 11.054688 9.921875 13.710938 5.691406 13.851562 C 2.652344 13.953125 0.304688 12.351562 0.304688 9.113281 C 0.304688 5.488281 4.210938 2.816406 8.28125 2.671875 Z M 8.28125 2.671875 "/></g></g></g></svg>